HIERARCHY
ROOT hip
{
	OFFSET 0.000000 -102.168968 0.000000
	CHANNELS 6 Xposition Yposition Zposition Zrotation Xrotation Yrotation
	JOINT abdomen
	{
		OFFSET 0.000000 6.096001 0.000000
		CHANNELS 3 Zrotation Xrotation Yrotation
		JOINT chest
		{
			OFFSET 0.000000 15.118080 -1.219200
			CHANNELS 3 Zrotation Xrotation Yrotation
			JOINT neck
			{
				OFFSET 0.000000 18.287994 -0.487680
				CHANNELS 3 Zrotation Xrotation Yrotation
				JOINT head
				{
					OFFSET 0.000000 5.608322 0.000000
					CHANNELS 3 Zrotation Xrotation Yrotation
					End Site
					{
						OFFSET 11.948160 -6.339828 -0.975360
					}
				}
			}
			JOINT lCollar
			{
				OFFSET 6.096000 11.948166 -1.463040
				CHANNELS 3 Zrotation Xrotation Yrotation
				JOINT lShldr
				{
					OFFSET 5.852160 0.000000 0.000000
					CHANNELS 3 Zrotation Xrotation Yrotation
					JOINT lForeArm
					{
						OFFSET 18.044161 0.000000 0.000000
						CHANNELS 3 Zrotation Xrotation Yrotation
						JOINT lHand
						{
							OFFSET 15.118080 0.000000 0.000000
							CHANNELS 3 Zrotation Xrotation Yrotation
							End Site
							{
								OFFSET -11.948160 -6.339828 -0.975360
							}
						}
					}
				}
			}
			JOINT rCollar
			{
				OFFSET -6.339839 11.948166 -1.463040
				CHANNELS 3 Zrotation Xrotation Yrotation
				JOINT rShldr
				{
					OFFSET -5.608321 0.000000 0.000000
					CHANNELS 3 Zrotation Xrotation Yrotation
					JOINT rForeArm
					{
						OFFSET -18.287998 0.000000 0.000000
						CHANNELS 3 Zrotation Xrotation Yrotation
						JOINT rHand
						{
							OFFSET -14.874243 0.000000 0.000000
							CHANNELS 3 Zrotation Xrotation Yrotation
							End Site
							{
								OFFSET 5.852160 -33.649918 2.438400
							}
						}
					}
				}
			}
		}
	}
	JOINT lThigh
	{
		OFFSET 9.509760 -2.926079 2.438400
		CHANNELS 3 Zrotation Xrotation Yrotation
		JOINT lShin
		{
			OFFSET -3.657600 -35.844475 0.000000
			CHANNELS 3 Zrotation Xrotation Yrotation
			JOINT lFoot
			{
				OFFSET 0.000000 -34.381443 -2.194560
				CHANNELS 3 Zrotation Xrotation Yrotation
				End Site
				{
					OFFSET -5.852160 -33.649918 2.438400
				}
			}
		}
	}
	JOINT rThigh
	{
		OFFSET -9.509760 -2.926079 2.438400
		CHANNELS 3 Zrotation Xrotation Yrotation
		JOINT rShin
		{
			OFFSET 3.657600 -35.844475 0.000000
			CHANNELS 3 Zrotation Xrotation Yrotation
			JOINT rFoot
			{
				OFFSET 0.000000 -34.381443 -2.194560
				CHANNELS 3 Zrotation Xrotation Yrotation
				End Site
				{
					OFFSET 0.000000 -4.389120 8.290560
				}
			}
		}
	}
}
MOTION
Frames:	21
Frame Time:	0.05
0.000000 0.000000 0.000000 0.000000 0.060000 0.000000 -0.722669 -0.281770 -0.580483 -0.624626 -0.369778 -0.453798 0.000000 0.060000 0.000000 0.000000 0.060000 0.000000 -7.999890 0.018026 0.279244 0.000000 0.060000 -4.000000 0.000000 0.060000 -7.999999 -6.999999 0.060000 0.000000 7.999999 -0.134249 0.000000 -0.228870 -0.388127 4.000122 0.000000 0.060000 7.999999 6.999999 0.060000 0.000000 5.008757 -5.074244 0.486724 -2.012557 10.275527 0.267614 5.580678 14.167145 0.848798 -5.463597 -5.070829 -0.654990 2.359993 10.482846 -0.275940 -5.152123 17.144726 -0.154826 
0.000000 0.071053 0.000000 0.000000 0.000000 0.000000 -0.722669 -0.341770 -0.580483 -0.624626 -0.429778 -0.453798 0.000000 0.000000 0.000000 0.000000 0.000000 0.000000 -7.999890 -0.041974 0.279244 0.000000 0.000000 -4.000000 0.000000 0.000000 -7.999999 -6.999999 0.000000 0.000000 7.999999 -0.194249 0.000000 -0.228870 -0.448127 4.000122 0.000000 0.000000 7.999999 6.999999 0.000000 0.000000 5.008757 -5.134244 0.486724 -2.012557 10.215527 0.267614 5.580678 14.107144 0.848798 -5.463597 -5.130829 -0.654990 2.359993 10.422846 -0.275940 -5.152123 17.084726 -0.154826 
0.000000 0.071053 0.938576 0.000000 0.000000 0.000000 -0.722669 -0.341770 -0.580483 -0.624626 -0.429778 -0.453798 0.000000 0.000000 0.000000 0.000000 0.000000 0.000000 -7.999890 -0.041974 0.279244 0.000000 0.000000 -4.000000 0.000000 0.000000 -7.999999 -6.999999 0.000000 0.000000 7.999999 -0.194249 0.000000 -0.228870 -0.448127 4.000122 0.000000 0.000000 7.999999 6.999999 0.000000 0.000000 5.008757 -5.134244 0.486724 -2.012557 10.215527 0.267614 5.580678 14.107144 0.848798 -5.463597 -5.130829 -0.654990 2.359993 10.422846 -0.275940 -5.152123 17.084726 -0.154826 
0.000000 0.071053 3.624846 0.000000 0.000000 0.000000 -0.722669 -0.341770 -0.580483 -0.624626 -0.429778 -0.453798 0.000000 0.000000 0.000000 0.000000 0.000000 0.000000 -7.999890 -0.041974 0.279244 0.000000 0.000000 -4.000000 0.000000 0.000000 -7.999999 -6.999999 0.000000 0.000000 7.999999 -0.194249 0.000000 -0.228870 -0.448127 4.000122 0.000000 0.000000 7.999999 6.999999 0.000000 0.000000 5.008757 -5.134244 0.486724 -2.012557 10.215527 0.267614 5.580678 14.107144 0.848798 -5.463597 -5.130829 -0.654990 2.359993 10.422846 -0.275940 -5.152123 17.084726 -0.154826 
0.000000 0.071053 7.864622 0.000000 0.000000 0.000000 -0.722669 -0.341770 -0.580483 -0.624626 -0.429778 -0.453798 0.000000 0.000000 0.000000 0.000000 0.000000 0.000000 -7.999890 -0.041974 0.279244 0.000000 0.000000 -4.000000 0.000000 0.000000 -7.999999 -6.999999 0.000000 0.000000 7.999999 -0.194249 0.000000 -0.228870 -0.448127 4.000122 0.000000 0.000000 7.999999 6.999999 0.000000 0.000000 5.008757 -5.134244 0.486724 -2.012557 10.215527 0.267614 5.580678 14.107144 0.848798 -5.463597 -5.130829 -0.654990 2.359993 10.422846 -0.275940 -5.152123 17.084726 -0.154826 
0.000000 0.071053 13.463716 0.000000 0.000000 0.000000 -0.722669 -0.341770 -0.580483 -0.624626 -0.429778 -0.453798 0.000000 0.000000 0.000000 0.000000 0.000000 0.000000 -7.999890 -0.041974 0.279244 0.000000 0.000000 -4.000000 0.000000 0.000000 -7.999999 -6.999999 0.000000 0.000000 7.999999 -0.194249 0.000000 -0.228870 -0.448127 4.000122 0.000000 0.000000 7.999999 6.999999 0.000000 0.000000 5.008757 -5.134244 0.486724 -2.012557 10.215527 0.267614 5.580678 14.107144 0.848798 -5.463597 -5.130829 -0.654990 2.359993 10.422846 -0.275940 -5.152123 17.084726 -0.154826 
0.000000 0.071053 20.227938 0.000000 0.000000 0.000000 -0.722669 -0.341770 -0.580483 -0.624626 -0.429778 -0.453798 0.000000 0.000000 0.000000 0.000000 0.000000 0.000000 -7.999890 -0.041974 0.279244 0.000000 0.000000 -4.000000 0.000000 0.000000 -7.999999 -6.999999 0.000000 0.000000 7.999999 -0.194249 0.000000 -0.228870 -0.448127 4.000122 0.000000 0.000000 7.999999 6.999999 0.000000 0.000000 5.008757 -5.134244 0.486724 -2.012557 10.215527 0.267614 5.580678 14.107144 0.848798 -5.463597 -5.130829 -0.654990 2.359993 10.422846 -0.275940 -5.152123 17.084726 -0.154826 
0.000000 0.071053 27.963102 0.000000 0.000000 0.000000 -0.722669 -0.341770 -0.580483 -0.624626 -0.429778 -0.453798 0.000000 0.000000 0.000000 0.000000 0.000000 0.000000 -7.999890 -0.041974 0.279244 0.000000 0.000000 -4.000000 0.000000 0.000000 -7.999999 -6.999999 0.000000 0.000000 7.999999 -0.194249 0.000000 -0.228870 -0.448127 4.000122 0.000000 0.000000 7.999999 6.999999 0.000000 0.000000 5.008757 -5.134244 0.486724 -2.012557 10.215527 0.267614 5.580678 14.107144 0.848798 -5.463597 -5.130829 -0.654990 2.359993 10.422846 -0.275940 -5.152123 17.084726 -0.154826 
0.000000 0.071053 36.475014 0.000000 0.000000 0.000000 -0.722669 -0.341770 -0.580483 -0.624626 -0.429778 -0.453798 0.000000 0.000000 0.000000 0.000000 0.000000 0.000000 -7.999890 -0.041974 0.279244 0.000000 0.000000 -4.000000 0.000000 0.000000 -7.999999 -6.999999 0.000000 0.000000 7.999999 -0.194249 0.000000 -0.228870 -0.448127 4.000122 0.000000 0.000000 7.999999 6.999999 0.000000 0.000000 5.008757 -5.134244 0.486724 -2.012557 10.215527 0.267614 5.580678 14.107144 0.848798 -5.463597 -5.130829 -0.654990 2.359993 10.422846 -0.275940 -5.152123 17.084726 -0.154826 
0.000000 0.071053 45.569496 0.000000 0.000000 0.000000 -0.722669 -0.341770 -0.580483 -0.624626 -0.429778 -0.453798 0.000000 0.000000 0.000000 0.000000 0.000000 0.000000 -7.999890 -0.041974 0.279244 0.000000 0.000000 -4.000000 0.000000 0.000000 -7.999999 -6.999999 0.000000 0.000000 7.999999 -0.194249 0.000000 -0.228870 -0.448127 4.000122 0.000000 0.000000 7.999999 6.999999 0.000000 0.000000 5.008757 -5.134244 0.486724 -2.012557 10.215527 0.267614 5.580678 14.107144 0.848798 -5.463597 -5.130829 -0.654990 2.359993 10.422846 -0.275940 -5.152123 17.084726 -0.154826 
0.000000 0.071053 55.052353 0.000000 0.000000 0.000000 -0.722669 -0.341770 -0.580483 -0.624626 -0.429778 -0.453798 0.000000 0.000000 0.000000 0.000000 0.000000 0.000000 -7.999890 -0.041974 0.279244 0.000000 0.000000 -4.000000 0.000000 0.000000 -7.999999 -6.999999 0.000000 0.000000 7.999999 -0.194249 0.000000 -0.228870 -0.448127 4.000122 0.000000 0.000000 7.999999 6.999999 0.000000 0.000000 5.008757 -5.134244 0.486724 -2.012557 10.215527 0.267614 5.580678 14.107144 0.848798 -5.463597 -5.130829 -0.654990 2.359993 10.422846 -0.275940 -5.152123 17.084726 -0.154826 
0.000000 0.071053 64.729401 0.000000 0.000000 0.000000 -0.722669 -0.341770 -0.580483 -0.624626 -0.429778 -0.453798 0.000000 0.000000 0.000000 0.000000 0.000000 0.000000 -7.999890 -0.041974 0.279244 0.000000 0.000000 -4.000000 0.000000 0.000000 -7.999999 -6.999999 0.000000 0.000000 7.999999 -0.194249 0.000000 -0.228870 -0.448127 4.000122 0.000000 0.000000 7.999999 6.999999 0.000000 0.000000 5.008757 -5.134244 0.486724 -2.012557 10.215527 0.267614 5.580678 14.107144 0.848798 -5.463597 -5.130829 -0.654990 2.359993 10.422846 -0.275940 -5.152123 17.084726 -0.154826 
0.000000 0.071053 74.406448 0.000000 0.000000 0.000000 -0.722669 -0.341770 -0.580483 -0.624626 -0.429778 -0.453798 0.000000 0.000000 0.000000 0.000000 0.000000 0.000000 -7.999890 -0.041974 0.279244 0.000000 0.000000 -4.000000 0.000000 0.000000 -7.999999 -6.999999 0.000000 0.000000 7.999999 -0.194249 0.000000 -0.228870 -0.448127 4.000122 0.000000 0.000000 7.999999 6.999999 0.000000 0.000000 5.008757 -5.134244 0.486724 -2.012557 10.215527 0.267614 5.580678 14.107144 0.848798 -5.463597 -5.130829 -0.654990 2.359993 10.422846 -0.275940 -5.152123 17.084726 -0.154826 
0.000000 0.071053 83.889305 0.000000 0.000000 0.000000 -0.722669 -0.341770 -0.580483 -0.624626 -0.429778 -0.453798 0.000000 0.000000 0.000000 0.000000 0.000000 0.000000 -7.999890 -0.041974 0.279244 0.000000 0.000000 -4.000000 0.000000 0.000000 -7.999999 -6.999999 0.000000 0.000000 7.999999 -0.194249 0.000000 -0.228870 -0.448127 4.000122 0.000000 0.000000 7.999999 6.999999 0.000000 0.000000 5.008757 -5.134244 0.486724 -2.012557 10.215527 0.267614 5.580678 14.107144 0.848798 -5.463597 -5.130829 -0.654990 2.359993 10.422846 -0.275940 -5.152123 17.084726 -0.154826 
0.000000 0.071053 92.983780 0.000000 0.000000 0.000000 -0.722669 -0.341770 -0.580483 -0.624626 -0.429778 -0.453798 0.000000 0.000000 0.000000 0.000000 0.000000 0.000000 -7.999890 -0.041974 0.279244 0.000000 0.000000 -4.000000 0.000000 0.000000 -7.999999 -6.999999 0.000000 0.000000 7.999999 -0.194249 0.000000 -0.228870 -0.448127 4.000122 0.000000 0.000000 7.999999 6.999999 0.000000 0.000000 5.008757 -5.134244 0.486724 -2.012557 10.215527 0.267614 5.580678 14.107144 0.848798 -5.463597 -5.130829 -0.654990 2.359993 10.422846 -0.275940 -5.152123 17.084726 -0.154826 
0.000000 0.071053 101.495689 0.000000 0.000000 0.000000 -0.722669 -0.341770 -0.580483 -0.624626 -0.429778 -0.453798 0.000000 0.000000 0.000000 0.000000 0.000000 0.000000 -7.999890 -0.041974 0.279244 0.000000 0.000000 -4.000000 0.000000 0.000000 -7.999999 -6.999999 0.000000 0.000000 7.999999 -0.194249 0.000000 -0.228870 -0.448127 4.000122 0.000000 0.000000 7.999999 6.999999 0.000000 0.000000 5.008757 -5.134244 0.486724 -2.012557 10.215527 0.267614 5.580678 14.107144 0.848798 -5.463597 -5.130829 -0.654990 2.359993 10.422846 -0.275940 -5.152123 17.084726 -0.154826 
0.000000 0.071053 109.230865 0.000000 0.000000 0.000000 -0.722669 -0.341770 -0.580483 -0.624626 -0.429778 -0.453798 0.000000 0.000000 0.000000 0.000000 0.000000 0.000000 -7.999890 -0.041974 0.279244 0.000000 0.000000 -4.000000 0.000000 0.000000 -7.999999 -6.999999 0.000000 0.000000 7.999999 -0.194249 0.000000 -0.228870 -0.448127 4.000122 0.000000 0.000000 7.999999 6.999999 0.000000 0.000000 5.008757 -5.134244 0.486724 -2.012557 10.215527 0.267614 5.580678 14.107144 0.848798 -5.463597 -5.130829 -0.654990 2.359993 10.422846 -0.275940 -5.152123 17.084726 -0.154826 
0.000000 0.071053 115.995087 0.000000 0.000000 0.000000 -0.722669 -0.341770 -0.580483 -0.624626 -0.429778 -0.453798 0.000000 0.000000 0.000000 0.000000 0.000000 0.000000 -7.999890 -0.041974 0.279244 0.000000 0.000000 -4.000000 0.000000 0.000000 -7.999999 -6.999999 0.000000 0.000000 7.999999 -0.194249 0.000000 -0.228870 -0.448127 4.000122 0.000000 0.000000 7.999999 6.999999 0.000000 0.000000 5.008757 -5.134244 0.486724 -2.012557 10.215527 0.267614 5.580678 14.107144 0.848798 -5.463597 -5.130829 -0.654990 2.359993 10.422846 -0.275940 -5.152123 17.084726 -0.154826 
0.000000 0.071053 121.594177 0.000000 0.000000 0.000000 -0.722669 -0.341770 -0.580483 -0.624626 -0.429778 -0.453798 0.000000 0.000000 0.000000 0.000000 0.000000 0.000000 -7.999890 -0.041974 0.279244 0.000000 0.000000 -4.000000 0.000000 0.000000 -7.999999 -6.999999 0.000000 0.000000 7.999999 -0.194249 0.000000 -0.228870 -0.448127 4.000122 0.000000 0.000000 7.999999 6.999999 0.000000 0.000000 5.008757 -5.134244 0.486724 -2.012557 10.215527 0.267614 5.580678 14.107144 0.848798 -5.463597 -5.130829 -0.654990 2.359993 10.422846 -0.275940 -5.152123 17.084726 -0.154826 
0.000000 0.071053 125.833954 0.000000 0.000000 0.000000 -0.722669 -0.341770 -0.580483 -0.624626 -0.429778 -0.453798 0.000000 0.000000 0.000000 0.000000 0.000000 0.000000 -7.999890 -0.041974 0.279244 0.000000 0.000000 -4.000000 0.000000 0.000000 -7.999999 -6.999999 0.000000 0.000000 7.999999 -0.194249 0.000000 -0.228870 -0.448127 4.000122 0.000000 0.000000 7.999999 6.999999 0.000000 0.000000 5.008757 -5.134244 0.486724 -2.012557 10.215527 0.267614 5.580678 14.107144 0.848798 -5.463597 -5.130829 -0.654990 2.359993 10.422846 -0.275940 -5.152123 17.084726 -0.154826 
0.000000 0.071053 128.520233 0.000000 0.000000 0.000000 -0.722669 -0.341770 -0.580483 -0.624626 -0.429778 -0.453798 0.000000 0.000000 0.000000 0.000000 0.000000 0.000000 -7.999890 -0.041974 0.279244 0.000000 0.000000 -4.000000 0.000000 0.000000 -7.999999 -6.999999 0.000000 0.000000 7.999999 -0.194249 0.000000 -0.228870 -0.448127 4.000122 0.000000 0.000000 7.999999 6.999999 0.000000 0.000000 5.008757 -5.134244 0.486724 -2.012557 10.215527 0.267614 5.580678 14.107144 0.848798 -5.463597 -5.130829 -0.654990 2.359993 10.422846 -0.275940 -5.152123 17.084726 -0.154826 
